<?xml version="1.0" standalone="no"?>
<svg xmlns="http://www.w3.org/2000/svg" width="24" height="24"><rect width="24" height="24" opacity="0"></rect><g mask="url(#hms_mask_0)"><path d="M12 22.99Q14.98 22.99 17.51 21.52Q20.04 20.04 21.52 17.51Q22.99 14.98 22.99 12Q22.99 9.02 21.52 6.49Q20.04 3.96 17.51 2.48Q14.98 1.01 12 1.01Q9.02 1.01 6.49 2.48Q3.96 3.96 2.48 6.49Q1.01 9.02 1.01 12Q1.01 14.98 2.48 17.51Q3.96 20.04 6.49 21.52Q9.02 22.99 12 22.99Z" fill="rgba(0,0,0,0.9019607843137255)"></path></g><defs><mask id="hms_mask_0"><rect width="24" height="24" fill="#ffffff"></rect><g><path d="M17.66 10.9Q17.98 11.21 18.02 11.52Q18.07 11.83 17.81 12.1Q17.54 12.36 17.24 12.34Q16.94 12.31 16.61 12L16.58 11.98L12.7 8.09L12.7 16.99Q12.7 17.45 12.49 17.7Q12.29 17.95 11.93 17.95Q11.57 17.95 11.36 17.7Q11.16 17.45 11.16 16.99L11.16 8.11L7.32 11.98Q7.01 12.29 6.7 12.32Q6.38 12.36 6.12 12.1Q5.86 11.83 5.88 11.52Q5.9 11.21 6.24 10.87L11.02 6.07Q11.38 5.69 11.9 5.68Q12.43 5.66 12.84 6.05L17.66 10.9Z" fill="#000000"></path></g></mask></defs></svg>